# Wavefront OBJ file automatically generated by Tiled2Unity

# Vertices (Count = 319)
v -1160 -40 0
v -1200 -40 0
v -1200 0 0
v -1160 0 0
v -1120 -40 0
v -1120 0 0
v -1080 -40 0
v -1080 0 0
v -1040 -40 0
v -1040 0 0
v -1000 -40 0
v -1000 0 0
v -960 -40 0
v -960 0 0
v -920 -40 0
v -920 0 0
v -880 -40 0
v -880 0 0
v -840 -40 0
v -840 0 0
v -800 -40 0
v -800 0 0
v -760 -40 0
v -760 0 0
v -720 -40 0
v -720 0 0
v -680 -40 0
v -680 0 0
v -640 -40 0
v -640 0 0
v -600 -40 0
v -600 0 0
v -560 -40 0
v -560 0 0
v -520 -40 0
v -520 0 0
v -480 -40 0
v -480 0 0
v -440 -40 0
v -440 0 0
v -400 -40 0
v -400 0 0
v -360 -40 0
v -360 0 0
v -320 -40 0
v -320 0 0
v -280 -40 0
v -280 0 0
v -240 -40 0
v -240 0 0
v -200 -40 0
v -200 0 0
v -160 -40 0
v -160 0 0
v -120 -40 0
v -120 0 0
v -80 -40 0
v -80 0 0
v -40 -40 0
v -40 0 0
v 0 -40 0
v 0 0 0
v -1160 -80 0
v -1200 -80 0
v -1120 -80 0
v -1080 -80 0
v -1040 -80 0
v -1000 -80 0
v -960 -80 0
v -920 -80 0
v -880 -80 0
v -840 -80 0
v -800 -80 0
v -760 -80 0
v -720 -80 0
v -680 -80 0
v -640 -80 0
v -600 -80 0
v -560 -80 0
v -520 -80 0
v -480 -80 0
v -440 -80 0
v -400 -80 0
v -360 -80 0
v -320 -80 0
v -280 -80 0
v -240 -80 0
v -200 -80 0
v -160 -80 0
v -120 -80 0
v -80 -80 0
v -40 -80 0
v 0 -80 0
v -1160 -120 0
v -1200 -120 0
v -1120 -120 0
v -1080 -120 0
v -1040 -120 0
v -1000 -120 0
v -960 -120 0
v -920 -120 0
v -880 -120 0
v -840 -120 0
v -800 -120 0
v -760 -120 0
v -720 -120 0
v -680 -120 0
v -640 -120 0
v -600 -120 0
v -560 -120 0
v -520 -120 0
v -480 -120 0
v -440 -120 0
v -400 -120 0
v -360 -120 0
v -320 -120 0
v -280 -120 0
v -240 -120 0
v -200 -120 0
v -160 -120 0
v -120 -120 0
v -80 -120 0
v -40 -120 0
v 0 -120 0
v -1160 -160 0
v -1200 -160 0
v -1120 -160 0
v -1080 -160 0
v -1040 -160 0
v -1000 -160 0
v -960 -160 0
v -920 -160 0
v -880 -160 0
v -840 -160 0
v -800 -160 0
v -760 -160 0
v -720 -160 0
v -680 -160 0
v -640 -160 0
v 0 -160 0
v -40 -160 0
v -1160 -200 0
v -1200 -200 0
v -1120 -200 0
v -1080 -200 0
v -1040 -200 0
v -1000 -200 0
v -960 -200 0
v -920 -200 0
v -880 -200 0
v -840 -200 0
v -800 -200 0
v -760 -200 0
v -720 -200 0
v 0 -200 0
v -40 -200 0
v -1160 -240 0
v -1200 -240 0
v -1120 -240 0
v -1080 -240 0
v -1040 -240 0
v -1000 -240 0
v -960 -240 0
v -920 -240 0
v -880 -240 0
v -840 -240 0
v -800 -240 0
v -760 -240 0
v 0 -240 0
v -40 -240 0
v -1120 -280 0
v -1160 -280 0
v -1080 -280 0
v -1040 -280 0
v -1000 -280 0
v -960 -280 0
v -920 -280 0
v -880 -280 0
v -840 -280 0
v -800 -280 0
v 0 -280 0
v -40 -280 0
v 0 -320 0
v -40 -320 0
v 0 -360 0
v -40 -360 0
v 0 -400 0
v -40 -400 0
v -1160 -440 0
v -1200 -440 0
v -1200 -400 0
v -1160 -400 0
v -1120 -440 0
v -1120 -400 0
v -1080 -440 0
v -1080 -400 0
v -1040 -440 0
v -1040 -400 0
v -1000 -440 0
v -1000 -400 0
v -960 -440 0
v -960 -400 0
v -920 -440 0
v -920 -400 0
v -880 -440 0
v -880 -400 0
v -840 -440 0
v -840 -400 0
v -800 -440 0
v -800 -400 0
v -760 -440 0
v -760 -400 0
v -720 -440 0
v -720 -400 0
v -680 -440 0
v -680 -400 0
v -640 -440 0
v -640 -400 0
v -560 -440 0
v -600 -440 0
v -600 -400 0
v -560 -400 0
v -440 -440 0
v -480 -440 0
v -480 -400 0
v -440 -400 0
v -400 -440 0
v -400 -400 0
v -360 -440 0
v -360 -400 0
v -320 -440 0
v -320 -400 0
v -200 -440 0
v -240 -440 0
v -240 -400 0
v -200 -400 0
v -160 -440 0
v -160 -400 0
v -120 -440 0
v -120 -400 0
v -80 -440 0
v -80 -400 0
v -40 -440 0
v 0 -440 0
v -1160 -480 0
v -1200 -480 0
v -1120 -480 0
v -1080 -480 0
v -1040 -480 0
v -1000 -480 0
v -960 -480 0
v -920 -480 0
v -880 -480 0
v -840 -480 0
v -800 -480 0
v -760 -480 0
v -720 -480 0
v -680 -480 0
v -640 -480 0
v -560 -480 0
v -600 -480 0
v -440 -480 0
v -480 -480 0
v -400 -480 0
v -360 -480 0
v -320 -480 0
v -200 -480 0
v -240 -480 0
v -160 -480 0
v -120 -480 0
v -80 -480 0
v -40 -480 0
v 0 -480 0
v -1160 -520 0
v -1200 -520 0
v -1120 -520 0
v -1080 -520 0
v -1040 -520 0
v -1000 -520 0
v -960 -520 0
v -920 -520 0
v -880 -520 0
v -840 -520 0
v -800 -520 0
v -760 -520 0
v -720 -520 0
v -680 -520 0
v -640 -520 0
v -560 -520 0
v -600 -520 0
v -440 -520 0
v -480 -520 0
v -400 -520 0
v -360 -520 0
v -320 -520 0
v -200 -520 0
v -240 -520 0
v -160 -520 0
v -120 -520 0
v -80 -520 0
v -40 -520 0
v 0 -520 0
v -400 -160 0
v -440 -160 0
v -360 -160 0
v -320 -160 0
v -360 -200 0
v -400 -200 0
v -360 -240 0
v -400 -240 0
v -1120 -320 0
v -1160 -320 0
v -1080 -320 0
v -1040 -320 0
v -1000 -320 0
v -960 -320 0
v -920 -320 0
v -880 -320 0
v -840 -320 0

# Texture Coorindates (Count = 36)
vt 0.08012207 0.840122
vt 0.1598779 0.840122
vt 0.1598779 0.9198779
vt 0.08012207 0.9198779
vt 0.1601221 0.840122
vt 0.2398779 0.840122
vt 0.2398779 0.9198779
vt 0.1601221 0.9198779
vt 0.08012207 0.7601221
vt 0.1598779 0.7601221
vt 0.1598779 0.8398779
vt 0.08012207 0.8398779
vt 0.08012207 0.9201221
vt 0.1598779 0.9201221
vt 0.1598779 0.9998779
vt 0.08012207 0.9998779
vt 0.0001220703 0.9201221
vt 0.07987793 0.9201221
vt 0.07987793 0.9998779
vt 0.0001220703 0.9998779
vt 0.1601221 0.9201221
vt 0.2398779 0.9201221
vt 0.2398779 0.9998779
vt 0.1601221 0.9998779
vt 0.0001220703 0.840122
vt 0.07987793 0.840122
vt 0.07987793 0.9198779
vt 0.0001220703 0.9198779
vt 0.2401221 0.6801221
vt 0.3198779 0.6801221
vt 0.3198779 0.7598779
vt 0.2401221 0.7598779
vt 0.7201221 0.7601221
vt 0.7998779 0.7601221
vt 0.7998779 0.8398779
vt 0.7201221 0.8398779

# Normal
vn 0 0 -1

# Groups (Count = 3)
g mesh_[00]_[00]
f  1/1/1  2/2/1  3/3/1  4/4/1 
f  5/1/1  1/2/1  4/3/1  6/4/1 
f  7/1/1  5/2/1  6/3/1  8/4/1 
f  9/1/1  7/2/1  8/3/1  10/4/1 
f  11/1/1  9/2/1  10/3/1  12/4/1 
f  13/1/1  11/2/1  12/3/1  14/4/1 
f  15/1/1  13/2/1  14/3/1  16/4/1 
f  17/1/1  15/2/1  16/3/1  18/4/1 
f  19/1/1  17/2/1  18/3/1  20/4/1 
f  21/1/1  19/2/1  20/3/1  22/4/1 
f  23/1/1  21/2/1  22/3/1  24/4/1 
f  25/1/1  23/2/1  24/3/1  26/4/1 
f  27/1/1  25/2/1  26/3/1  28/4/1 
f  29/1/1  27/2/1  28/3/1  30/4/1 
f  31/1/1  29/2/1  30/3/1  32/4/1 
f  33/1/1  31/2/1  32/3/1  34/4/1 
f  35/1/1  33/2/1  34/3/1  36/4/1 
f  37/1/1  35/2/1  36/3/1  38/4/1 
f  39/1/1  37/2/1  38/3/1  40/4/1 
f  41/1/1  39/2/1  40/3/1  42/4/1 
f  43/1/1  41/2/1  42/3/1  44/4/1 
f  45/1/1  43/2/1  44/3/1  46/4/1 
f  47/1/1  45/2/1  46/3/1  48/4/1 
f  49/1/1  47/2/1  48/3/1  50/4/1 
f  51/1/1  49/2/1  50/3/1  52/4/1 
f  53/1/1  51/2/1  52/3/1  54/4/1 
f  55/1/1  53/2/1  54/3/1  56/4/1 
f  57/1/1  55/2/1  56/3/1  58/4/1 
f  59/1/1  57/2/1  58/3/1  60/4/1 
f  61/5/1  59/6/1  60/7/1  62/8/1 
f  63/1/1  64/2/1  2/3/1  1/4/1 
f  65/1/1  63/2/1  1/3/1  5/4/1 
f  66/1/1  65/2/1  5/3/1  7/4/1 
f  67/1/1  66/2/1  7/3/1  9/4/1 
f  68/1/1  67/2/1  9/3/1  11/4/1 
f  69/1/1  68/2/1  11/3/1  13/4/1 
f  70/1/1  69/2/1  13/3/1  15/4/1 
f  71/1/1  70/2/1  15/3/1  17/4/1 
f  72/1/1  71/2/1  17/3/1  19/4/1 
f  73/1/1  72/2/1  19/3/1  21/4/1 
f  74/1/1  73/2/1  21/3/1  23/4/1 
f  75/1/1  74/2/1  23/3/1  25/4/1 
f  76/1/1  75/2/1  25/3/1  27/4/1 
f  77/1/1  76/2/1  27/3/1  29/4/1 
f  78/1/1  77/2/1  29/3/1  31/4/1 
f  79/1/1  78/2/1  31/3/1  33/4/1 
f  80/1/1  79/2/1  33/3/1  35/4/1 
f  81/1/1  80/2/1  35/3/1  37/4/1 
f  82/1/1  81/2/1  37/3/1  39/4/1 
f  83/1/1  82/2/1  39/3/1  41/4/1 
f  84/1/1  83/2/1  41/3/1  43/4/1 
f  85/1/1  84/2/1  43/3/1  45/4/1 
f  86/1/1  85/2/1  45/3/1  47/4/1 
f  87/1/1  86/2/1  47/3/1  49/4/1 
f  88/1/1  87/2/1  49/3/1  51/4/1 
f  89/1/1  88/2/1  51/3/1  53/4/1 
f  90/1/1  89/2/1  53/3/1  55/4/1 
f  91/1/1  90/2/1  55/3/1  57/4/1 
f  92/1/1  91/2/1  57/3/1  59/4/1 
f  93/5/1  92/6/1  59/7/1  61/8/1 
f  94/1/1  95/2/1  64/3/1  63/4/1 
f  96/1/1  94/2/1  63/3/1  65/4/1 
f  97/1/1  96/2/1  65/3/1  66/4/1 
f  98/1/1  97/2/1  66/3/1  67/4/1 
f  99/1/1  98/2/1  67/3/1  68/4/1 
f  100/1/1  99/2/1  68/3/1  69/4/1 
f  101/1/1  100/2/1  69/3/1  70/4/1 
f  102/1/1  101/2/1  70/3/1  71/4/1 
f  103/1/1  102/2/1  71/3/1  72/4/1 
f  104/1/1  103/2/1  72/3/1  73/4/1 
f  105/1/1  104/2/1  73/3/1  74/4/1 
f  106/1/1  105/2/1  74/3/1  75/4/1 
f  107/1/1  106/2/1  75/3/1  76/4/1 
f  108/1/1  107/2/1  76/3/1  77/4/1 
f  109/9/1  108/10/1  77/11/1  78/12/1 
f  110/9/1  109/10/1  78/11/1  79/12/1 
f  111/9/1  110/10/1  79/11/1  80/12/1 
f  112/9/1  111/10/1  80/11/1  81/12/1 
f  113/9/1  112/10/1  81/11/1  82/12/1 
f  114/9/1  113/10/1  82/11/1  83/12/1 
f  115/9/1  114/10/1  83/11/1  84/12/1 
f  116/9/1  115/10/1  84/11/1  85/12/1 
f  117/9/1  116/10/1  85/11/1  86/12/1 
f  118/9/1  117/10/1  86/11/1  87/12/1 
f  119/9/1  118/10/1  87/11/1  88/12/1 
f  120/9/1  119/10/1  88/11/1  89/12/1 
f  121/9/1  120/10/1  89/11/1  90/12/1 
f  122/9/1  121/10/1  90/11/1  91/12/1 
f  123/9/1  122/10/1  91/11/1  92/12/1 
f  124/5/1  123/6/1  92/7/1  93/8/1 
f  125/1/1  126/2/1  95/3/1  94/4/1 
f  127/1/1  125/2/1  94/3/1  96/4/1 
f  128/1/1  127/2/1  96/3/1  97/4/1 
f  129/1/1  128/2/1  97/3/1  98/4/1 
f  130/1/1  129/2/1  98/3/1  99/4/1 
f  131/1/1  130/2/1  99/3/1  100/4/1 
f  132/1/1  131/2/1  100/3/1  101/4/1 
f  133/1/1  132/2/1  101/3/1  102/4/1 
f  134/1/1  133/2/1  102/3/1  103/4/1 
f  135/1/1  134/2/1  103/3/1  104/4/1 
f  136/1/1  135/2/1  104/3/1  105/4/1 
f  137/1/1  136/2/1  105/3/1  106/4/1 
f  138/9/1  137/10/1  106/11/1  107/12/1 
f  139/9/1  138/10/1  107/11/1  108/12/1 
f  140/5/1  141/6/1  123/7/1  124/8/1 
f  142/1/1  143/2/1  126/3/1  125/4/1 
f  144/1/1  142/2/1  125/3/1  127/4/1 
f  145/1/1  144/2/1  127/3/1  128/4/1 
f  146/1/1  145/2/1  128/3/1  129/4/1 
f  147/1/1  146/2/1  129/3/1  130/4/1 
f  148/1/1  147/2/1  130/3/1  131/4/1 
f  149/1/1  148/2/1  131/3/1  132/4/1 
f  150/1/1  149/2/1  132/3/1  133/4/1 
f  151/1/1  150/2/1  133/3/1  134/4/1 
f  152/1/1  151/2/1  134/3/1  135/4/1 
f  153/1/1  152/2/1  135/3/1  136/4/1 
f  154/9/1  153/10/1  136/11/1  137/12/1 
f  155/5/1  156/6/1  141/7/1  140/8/1 
f  157/9/1  158/10/1  143/11/1  142/12/1 
f  159/1/1  157/2/1  142/3/1  144/4/1 
f  160/1/1  159/2/1  144/3/1  145/4/1 
f  161/1/1  160/2/1  145/3/1  146/4/1 
f  162/1/1  161/2/1  146/3/1  147/4/1 
f  163/1/1  162/2/1  147/3/1  148/4/1 
f  164/1/1  163/2/1  148/3/1  149/4/1 
f  165/1/1  164/2/1  149/3/1  150/4/1 
f  166/1/1  165/2/1  150/3/1  151/4/1 
f  167/1/1  166/2/1  151/3/1  152/4/1 
f  168/9/1  167/10/1  152/11/1  153/12/1 
f  169/5/1  170/6/1  156/7/1  155/8/1 
f  171/1/1  172/2/1  157/3/1  159/4/1 
f  173/1/1  171/2/1  159/3/1  160/4/1 
f  174/1/1  173/2/1  160/3/1  161/4/1 
f  175/1/1  174/2/1  161/3/1  162/4/1 
f  176/1/1  175/2/1  162/3/1  163/4/1 
f  177/1/1  176/2/1  163/3/1  164/4/1 
f  178/1/1  177/2/1  164/3/1  165/4/1 
f  179/1/1  178/2/1  165/3/1  166/4/1 
f  180/9/1  179/10/1  166/11/1  167/12/1 
f  181/5/1  182/6/1  170/7/1  169/8/1 
f  183/5/1  184/6/1  182/7/1  181/8/1 
f  185/5/1  186/6/1  184/7/1  183/8/1 
f  187/5/1  188/6/1  186/7/1  185/8/1 
f  189/13/1  190/14/1  191/15/1  192/16/1 
f  193/13/1  189/14/1  192/15/1  194/16/1 
f  195/13/1  193/14/1  194/15/1  196/16/1 
f  197/13/1  195/14/1  196/15/1  198/16/1 
f  199/13/1  197/14/1  198/15/1  200/16/1 
f  201/13/1  199/14/1  200/15/1  202/16/1 
f  203/13/1  201/14/1  202/15/1  204/16/1 
f  205/13/1  203/14/1  204/15/1  206/16/1 
f  207/13/1  205/14/1  206/15/1  208/16/1 
f  209/13/1  207/14/1  208/15/1  210/16/1 
f  211/13/1  209/14/1  210/15/1  212/16/1 
f  213/13/1  211/14/1  212/15/1  214/16/1 
f  215/13/1  213/14/1  214/15/1  216/16/1 
f  217/17/1  215/18/1  216/19/1  218/20/1 
f  219/13/1  220/14/1  221/15/1  222/16/1 
f  223/21/1  224/22/1  225/23/1  226/24/1 
f  227/13/1  223/14/1  226/15/1  228/16/1 
f  229/13/1  227/14/1  228/15/1  230/16/1 
f  231/17/1  229/18/1  230/19/1  232/20/1 
f  233/21/1  234/22/1  235/23/1  236/24/1 
f  237/13/1  233/14/1  236/15/1  238/16/1 
f  239/13/1  237/14/1  238/15/1  240/16/1 
f  241/13/1  239/14/1  240/15/1  242/16/1 
f  243/13/1  241/14/1  242/15/1  188/16/1 
f  244/5/1  243/6/1  188/7/1  187/8/1 
f  245/1/1  246/2/1  190/3/1  189/4/1 
f  247/1/1  245/2/1  189/3/1  193/4/1 
f  248/1/1  247/2/1  193/3/1  195/4/1 
f  249/1/1  248/2/1  195/3/1  197/4/1 
f  250/1/1  249/2/1  197/3/1  199/4/1 
f  251/1/1  250/2/1  199/3/1  201/4/1 
f  252/1/1  251/2/1  201/3/1  203/4/1 
f  253/1/1  252/2/1  203/3/1  205/4/1 
f  254/1/1  253/2/1  205/3/1  207/4/1 
f  255/1/1  254/2/1  207/3/1  209/4/1 
f  256/1/1  255/2/1  209/3/1  211/4/1 
f  257/1/1  256/2/1  211/3/1  213/4/1 
f  258/1/1  257/2/1  213/3/1  215/4/1 
f  259/25/1  258/26/1  215/27/1  217/28/1 
f  260/1/1  261/2/1  220/3/1  219/4/1 
f  262/5/1  263/6/1  224/7/1  223/8/1 
f  264/1/1  262/2/1  223/3/1  227/4/1 
f  265/1/1  264/2/1  227/3/1  229/4/1 
f  266/25/1  265/26/1  229/27/1  231/28/1 
f  267/5/1  268/6/1  234/7/1  233/8/1 
f  269/1/1  267/2/1  233/3/1  237/4/1 
f  270/1/1  269/2/1  237/3/1  239/4/1 
f  271/1/1  270/2/1  239/3/1  241/4/1 
f  272/1/1  271/2/1  241/3/1  243/4/1 
f  273/5/1  272/6/1  243/7/1  244/8/1 
f  274/1/1  275/2/1  246/3/1  245/4/1 
f  276/1/1  274/2/1  245/3/1  247/4/1 
f  277/1/1  276/2/1  247/3/1  248/4/1 
f  278/1/1  277/2/1  248/3/1  249/4/1 
f  279/1/1  278/2/1  249/3/1  250/4/1 
f  280/1/1  279/2/1  250/3/1  251/4/1 
f  281/1/1  280/2/1  251/3/1  252/4/1 
f  282/1/1  281/2/1  252/3/1  253/4/1 
f  283/1/1  282/2/1  253/3/1  254/4/1 
f  284/1/1  283/2/1  254/3/1  255/4/1 
f  285/1/1  284/2/1  255/3/1  256/4/1 
f  286/1/1  285/2/1  256/3/1  257/4/1 
f  287/1/1  286/2/1  257/3/1  258/4/1 
f  288/25/1  287/26/1  258/27/1  259/28/1 
f  289/1/1  290/2/1  261/3/1  260/4/1 
f  291/5/1  292/6/1  263/7/1  262/8/1 
f  293/1/1  291/2/1  262/3/1  264/4/1 
f  294/1/1  293/2/1  264/3/1  265/4/1 
f  295/25/1  294/26/1  265/27/1  266/28/1 
f  296/5/1  297/6/1  268/7/1  267/8/1 
f  298/1/1  296/2/1  267/3/1  269/4/1 
f  299/1/1  298/2/1  269/3/1  270/4/1 
f  300/1/1  299/2/1  270/3/1  271/4/1 
f  301/1/1  300/2/1  271/3/1  272/4/1 
f  302/25/1  301/26/1  272/27/1  273/28/1 
g mesh_[01]_[00]
f  113/9/1  112/10/1  81/11/1  82/12/1 
f  114/1/1  113/2/1  82/3/1  83/4/1 
f  115/1/1  114/2/1  83/3/1  84/4/1 
f  116/1/1  115/2/1  84/3/1  85/4/1 
f  117/9/1  116/10/1  85/11/1  86/12/1 
f  303/9/1  304/10/1  113/11/1  114/12/1 
f  305/1/1  303/2/1  114/3/1  115/4/1 
f  306/9/1  305/10/1  115/11/1  116/12/1 
f  307/1/1  308/2/1  303/3/1  305/4/1 
f  309/29/1  310/30/1  308/31/1  307/32/1 
g mesh_[02]_[00]
f  311/33/1  312/34/1  172/35/1  171/36/1 
f  313/33/1  311/34/1  171/35/1  173/36/1 
f  314/33/1  313/34/1  173/35/1  174/36/1 
f  315/33/1  314/34/1  174/35/1  175/36/1 
f  316/33/1  315/34/1  175/35/1  176/36/1 
f  317/33/1  316/34/1  176/35/1  177/36/1 
f  318/33/1  317/34/1  177/35/1  178/36/1 
f  319/33/1  318/34/1  178/35/1  179/36/1 
