# Wavefront OBJ file automatically generated by Tiled2Unity

# Vertices (Count = 265)
v -1160 -40 0
v -1200 -40 0
v -1200 0 0
v -1160 0 0
v -1120 -40 0
v -1120 0 0
v -1080 -40 0
v -1080 0 0
v -1040 -40 0
v -1040 0 0
v -1000 -40 0
v -1000 0 0
v -960 -40 0
v -960 0 0
v -920 -40 0
v -920 0 0
v -880 -40 0
v -880 0 0
v -840 -40 0
v -840 0 0
v -800 -40 0
v -800 0 0
v -760 -40 0
v -760 0 0
v -720 -40 0
v -720 0 0
v -680 -40 0
v -680 0 0
v -640 -40 0
v -640 0 0
v -600 -40 0
v -600 0 0
v -560 -40 0
v -560 0 0
v -520 -40 0
v -520 0 0
v -480 -40 0
v -480 0 0
v -440 -40 0
v -440 0 0
v -400 -40 0
v -400 0 0
v -360 -40 0
v -360 0 0
v -320 -40 0
v -320 0 0
v -280 -40 0
v -280 0 0
v -240 -40 0
v -240 0 0
v -200 -40 0
v -200 0 0
v -160 -40 0
v -160 0 0
v -120 -40 0
v -120 0 0
v -80 -40 0
v -80 0 0
v -40 -40 0
v -40 0 0
v 0 -40 0
v 0 0 0
v -1160 -80 0
v -1200 -80 0
v -1120 -80 0
v -1080 -80 0
v -1040 -80 0
v -1000 -80 0
v -960 -80 0
v -920 -80 0
v -880 -80 0
v -840 -80 0
v -680 -80 0
v -720 -80 0
v -640 -80 0
v -600 -80 0
v -560 -80 0
v -520 -80 0
v -480 -80 0
v -440 -80 0
v -400 -80 0
v -360 -80 0
v -320 -80 0
v -280 -80 0
v -240 -80 0
v -200 -80 0
v -160 -80 0
v -120 -80 0
v -80 -80 0
v -40 -80 0
v 0 -80 0
v -1160 -120 0
v -1200 -120 0
v -1040 -120 0
v -1080 -120 0
v -1000 -120 0
v -960 -120 0
v -920 -120 0
v -560 -120 0
v -600 -120 0
v -520 -120 0
v -480 -120 0
v -440 -120 0
v -400 -120 0
v -360 -120 0
v -320 -120 0
v -280 -120 0
v -240 -120 0
v -200 -120 0
v -160 -120 0
v -120 -120 0
v -80 -120 0
v -40 -120 0
v 0 -120 0
v -320 -160 0
v -360 -160 0
v -280 -160 0
v -240 -160 0
v -200 -160 0
v -160 -160 0
v -120 -160 0
v -80 -160 0
v -40 -160 0
v -240 -200 0
v -280 -200 0
v -200 -200 0
v -160 -200 0
v -120 -200 0
v -800 -320 0
v -840 -320 0
v -840 -280 0
v -800 -280 0
v -760 -320 0
v -760 -280 0
v -720 -320 0
v -720 -280 0
v -800 -360 0
v -840 -360 0
v -760 -360 0
v -720 -360 0
v -680 -360 0
v -680 -320 0
v -640 -360 0
v -640 -320 0
v -600 -360 0
v -600 -320 0
v -1120 -400 0
v -1160 -400 0
v -1160 -360 0
v -1120 -360 0
v -1080 -400 0
v -1080 -360 0
v -880 -400 0
v -920 -400 0
v -920 -360 0
v -880 -360 0
v -840 -400 0
v -800 -400 0
v -760 -400 0
v -720 -400 0
v -680 -400 0
v -640 -400 0
v -600 -400 0
v -560 -400 0
v -560 -360 0
v -520 -400 0
v -520 -360 0
v -480 -400 0
v -480 -360 0
v -1160 -440 0
v -1200 -440 0
v -1200 -400 0
v -1120 -440 0
v -1080 -440 0
v -880 -440 0
v -920 -440 0
v -840 -440 0
v -800 -440 0
v -760 -440 0
v -720 -440 0
v -680 -440 0
v -640 -440 0
v -600 -440 0
v -560 -440 0
v -520 -440 0
v -480 -440 0
v -440 -440 0
v -440 -400 0
v -400 -440 0
v -400 -400 0
v -360 -440 0
v -360 -400 0
v 0 -440 0
v -40 -440 0
v -40 -400 0
v 0 -400 0
v -1160 -480 0
v -1200 -480 0
v -1120 -480 0
v -1080 -480 0
v -880 -480 0
v -920 -480 0
v -840 -480 0
v -800 -480 0
v -760 -480 0
v -720 -480 0
v -680 -480 0
v -640 -480 0
v -600 -480 0
v -560 -480 0
v -520 -480 0
v -480 -480 0
v -440 -480 0
v -400 -480 0
v -360 -480 0
v -320 -480 0
v -320 -440 0
v -280 -480 0
v -280 -440 0
v -80 -480 0
v -120 -480 0
v -120 -440 0
v -80 -440 0
v -40 -480 0
v 0 -480 0
v -1160 -520 0
v -1200 -520 0
v -1120 -520 0
v -1080 -520 0
v -1040 -520 0
v -1040 -480 0
v -1000 -520 0
v -1000 -480 0
v -960 -520 0
v -960 -480 0
v -920 -520 0
v -880 -520 0
v -840 -520 0
v -800 -520 0
v -760 -520 0
v -720 -520 0
v -680 -520 0
v -640 -520 0
v -600 -520 0
v -560 -520 0
v -520 -520 0
v -480 -520 0
v -440 -520 0
v -400 -520 0
v -360 -520 0
v -320 -520 0
v -280 -520 0
v -240 -520 0
v -240 -480 0
v -200 -520 0
v -200 -480 0
v -160 -520 0
v -160 -480 0
v -120 -520 0
v -80 -520 0
v -40 -520 0
v 0 -520 0
v -1040 -440 0
v -1000 -440 0
v -960 -440 0

# Texture Coorindates (Count = 56)
vt 0.08012207 0.840122
vt 0.1598779 0.840122
vt 0.1598779 0.9198779
vt 0.08012207 0.9198779
vt 0.08012207 0.7601221
vt 0.1598779 0.7601221
vt 0.1598779 0.8398779
vt 0.08012207 0.8398779
vt 0.1601221 0.840122
vt 0.2398779 0.840122
vt 0.2398779 0.9198779
vt 0.1601221 0.9198779
vt 0.1601221 0.9201221
vt 0.2398779 0.9201221
vt 0.2398779 0.9998779
vt 0.1601221 0.9998779
vt 0.08012207 0.9201221
vt 0.1598779 0.9201221
vt 0.1598779 0.9998779
vt 0.08012207 0.9998779
vt 0.0001220703 0.9201221
vt 0.07987793 0.9201221
vt 0.07987793 0.9998779
vt 0.0001220703 0.9998779
vt 0.0001220703 0.840122
vt 0.07987793 0.840122
vt 0.07987793 0.9198779
vt 0.0001220703 0.9198779
vt 0.3201221 0.9201221
vt 0.3998779 0.9201221
vt 0.3998779 0.9998779
vt 0.3201221 0.9998779
vt 0.1601221 0.6001221
vt 0.2398779 0.6001221
vt 0.2398779 0.6798779
vt 0.1601221 0.6798779
vt 0.08012207 0.6001221
vt 0.1598779 0.6001221
vt 0.1598779 0.6798779
vt 0.08012207 0.6798779
vt 0.0001220703 0.6001221
vt 0.07987793 0.6001221
vt 0.07987793 0.6798779
vt 0.0001220703 0.6798779
vt 0.1601221 0.5201221
vt 0.2398779 0.5201221
vt 0.2398779 0.599878
vt 0.1601221 0.599878
vt 0.0001220703 0.5201221
vt 0.07987793 0.5201221
vt 0.07987793 0.599878
vt 0.0001220703 0.599878
vt 0.08012207 0.3601221
vt 0.1598779 0.3601221
vt 0.1598779 0.4398779
vt 0.08012207 0.4398779

# Normal
vn 0 0 -1

# Groups (Count = 4)
g mesh_[00]_[00]
f  1/1/1  2/2/1  3/3/1  4/4/1 
f  5/1/1  1/2/1  4/3/1  6/4/1 
f  7/1/1  5/2/1  6/3/1  8/4/1 
f  9/1/1  7/2/1  8/3/1  10/4/1 
f  11/1/1  9/2/1  10/3/1  12/4/1 
f  13/1/1  11/2/1  12/3/1  14/4/1 
f  15/1/1  13/2/1  14/3/1  16/4/1 
f  17/1/1  15/2/1  16/3/1  18/4/1 
f  19/1/1  17/2/1  18/3/1  20/4/1 
f  21/5/1  19/6/1  20/7/1  22/8/1 
f  23/5/1  21/6/1  22/7/1  24/8/1 
f  25/5/1  23/6/1  24/7/1  26/8/1 
f  27/1/1  25/2/1  26/3/1  28/4/1 
f  29/1/1  27/2/1  28/3/1  30/4/1 
f  31/1/1  29/2/1  30/3/1  32/4/1 
f  33/1/1  31/2/1  32/3/1  34/4/1 
f  35/1/1  33/2/1  34/3/1  36/4/1 
f  37/1/1  35/2/1  36/3/1  38/4/1 
f  39/1/1  37/2/1  38/3/1  40/4/1 
f  41/1/1  39/2/1  40/3/1  42/4/1 
f  43/1/1  41/2/1  42/3/1  44/4/1 
f  45/1/1  43/2/1  44/3/1  46/4/1 
f  47/1/1  45/2/1  46/3/1  48/4/1 
f  49/1/1  47/2/1  48/3/1  50/4/1 
f  51/1/1  49/2/1  50/3/1  52/4/1 
f  53/1/1  51/2/1  52/3/1  54/4/1 
f  55/1/1  53/2/1  54/3/1  56/4/1 
f  57/1/1  55/2/1  56/3/1  58/4/1 
f  59/1/1  57/2/1  58/3/1  60/4/1 
f  61/9/1  59/10/1  60/11/1  62/12/1 
f  63/1/1  64/2/1  2/3/1  1/4/1 
f  65/5/1  63/6/1  1/7/1  5/8/1 
f  66/5/1  65/6/1  5/7/1  7/8/1 
f  67/1/1  66/2/1  7/3/1  9/4/1 
f  68/1/1  67/2/1  9/3/1  11/4/1 
f  69/1/1  68/2/1  11/3/1  13/4/1 
f  70/1/1  69/2/1  13/3/1  15/4/1 
f  71/5/1  70/6/1  15/7/1  17/8/1 
f  72/5/1  71/6/1  17/7/1  19/8/1 
f  73/5/1  74/6/1  25/7/1  27/8/1 
f  75/5/1  73/6/1  27/7/1  29/8/1 
f  76/5/1  75/6/1  29/7/1  31/8/1 
f  77/1/1  76/2/1  31/3/1  33/4/1 
f  78/1/1  77/2/1  33/3/1  35/4/1 
f  79/1/1  78/2/1  35/3/1  37/4/1 
f  80/1/1  79/2/1  37/3/1  39/4/1 
f  81/1/1  80/2/1  39/3/1  41/4/1 
f  82/1/1  81/2/1  41/3/1  43/4/1 
f  83/1/1  82/2/1  43/3/1  45/4/1 
f  84/1/1  83/2/1  45/3/1  47/4/1 
f  85/1/1  84/2/1  47/3/1  49/4/1 
f  86/1/1  85/2/1  49/3/1  51/4/1 
f  87/1/1  86/2/1  51/3/1  53/4/1 
f  88/1/1  87/2/1  53/3/1  55/4/1 
f  89/1/1  88/2/1  55/3/1  57/4/1 
f  90/1/1  89/2/1  57/3/1  59/4/1 
f  91/9/1  90/10/1  59/11/1  61/12/1 
f  92/5/1  93/6/1  64/7/1  63/8/1 
f  94/5/1  95/6/1  66/7/1  67/8/1 
f  96/5/1  94/6/1  67/7/1  68/8/1 
f  97/5/1  96/6/1  68/7/1  69/8/1 
f  98/5/1  97/6/1  69/7/1  70/8/1 
f  99/5/1  100/6/1  76/7/1  77/8/1 
f  101/5/1  99/6/1  77/7/1  78/8/1 
f  102/5/1  101/6/1  78/7/1  79/8/1 
f  103/5/1  102/6/1  79/7/1  80/8/1 
f  104/5/1  103/6/1  80/7/1  81/8/1 
f  105/5/1  104/6/1  81/7/1  82/8/1 
f  106/1/1  105/2/1  82/3/1  83/4/1 
f  107/1/1  106/2/1  83/3/1  84/4/1 
f  108/1/1  107/2/1  84/3/1  85/4/1 
f  109/1/1  108/2/1  85/3/1  86/4/1 
f  110/1/1  109/2/1  86/3/1  87/4/1 
f  111/1/1  110/2/1  87/3/1  88/4/1 
f  112/1/1  111/2/1  88/3/1  89/4/1 
f  113/1/1  112/2/1  89/3/1  90/4/1 
f  114/5/1  113/6/1  90/7/1  91/8/1 
f  115/5/1  116/6/1  105/7/1  106/8/1 
f  117/5/1  115/6/1  106/7/1  107/8/1 
f  118/1/1  117/2/1  107/3/1  108/4/1 
f  119/1/1  118/2/1  108/3/1  109/4/1 
f  120/1/1  119/2/1  109/3/1  110/4/1 
f  121/1/1  120/2/1  110/3/1  111/4/1 
f  122/5/1  121/6/1  111/7/1  112/8/1 
f  123/5/1  122/6/1  112/7/1  113/8/1 
f  124/5/1  125/6/1  117/7/1  118/8/1 
f  126/5/1  124/6/1  118/7/1  119/8/1 
f  127/5/1  126/6/1  119/7/1  120/8/1 
f  128/5/1  127/6/1  120/7/1  121/8/1 
f  129/13/1  130/14/1  131/15/1  132/16/1 
f  133/17/1  129/18/1  132/19/1  134/20/1 
f  135/21/1  133/22/1  134/23/1  136/24/1 
f  137/9/1  138/10/1  130/11/1  129/12/1 
f  139/1/1  137/2/1  129/3/1  133/4/1 
f  140/1/1  139/2/1  133/3/1  135/4/1 
f  141/17/1  140/18/1  135/19/1  142/20/1 
f  143/17/1  141/18/1  142/19/1  144/20/1 
f  145/21/1  143/22/1  144/23/1  146/24/1 
f  147/13/1  148/14/1  149/15/1  150/16/1 
f  151/21/1  147/22/1  150/23/1  152/24/1 
f  153/13/1  154/14/1  155/15/1  156/16/1 
f  157/17/1  153/18/1  156/19/1  138/20/1 
f  158/1/1  157/2/1  138/3/1  137/4/1 
f  159/1/1  158/2/1  137/3/1  139/4/1 
f  160/1/1  159/2/1  139/3/1  140/4/1 
f  161/1/1  160/2/1  140/3/1  141/4/1 
f  162/1/1  161/2/1  141/3/1  143/4/1 
f  163/1/1  162/2/1  143/3/1  145/4/1 
f  164/17/1  163/18/1  145/19/1  165/20/1 
f  166/17/1  164/18/1  165/19/1  167/20/1 
f  168/21/1  166/22/1  167/23/1  169/24/1 
f  170/17/1  171/18/1  172/19/1  148/20/1 
f  173/1/1  170/2/1  148/3/1  147/4/1 
f  174/1/1  173/2/1  147/3/1  151/4/1 
f  175/9/1  176/10/1  154/11/1  153/12/1 
f  177/1/1  175/2/1  153/3/1  157/4/1 
f  178/1/1  177/2/1  157/3/1  158/4/1 
f  179/1/1  178/2/1  158/3/1  159/4/1 
f  180/1/1  179/2/1  159/3/1  160/4/1 
f  181/1/1  180/2/1  160/3/1  161/4/1 
f  182/1/1  181/2/1  161/3/1  162/4/1 
f  183/1/1  182/2/1  162/3/1  163/4/1 
f  184/1/1  183/2/1  163/3/1  164/4/1 
f  185/1/1  184/2/1  164/3/1  166/4/1 
f  186/1/1  185/2/1  166/3/1  168/4/1 
f  187/17/1  186/18/1  168/19/1  188/20/1 
f  189/17/1  187/18/1  188/19/1  190/20/1 
f  191/21/1  189/22/1  190/23/1  192/24/1 
f  193/13/1  194/14/1  195/15/1  196/16/1 
f  197/1/1  198/2/1  171/3/1  170/4/1 
f  199/1/1  197/2/1  170/3/1  173/4/1 
f  200/1/1  199/2/1  173/3/1  174/4/1 
f  201/1/1  202/2/1  176/3/1  175/4/1 
f  203/1/1  201/2/1  175/3/1  177/4/1 
f  204/1/1  203/2/1  177/3/1  178/4/1 
f  205/1/1  204/2/1  178/3/1  179/4/1 
f  206/1/1  205/2/1  179/3/1  180/4/1 
f  207/1/1  206/2/1  180/3/1  181/4/1 
f  208/1/1  207/2/1  181/3/1  182/4/1 
f  209/1/1  208/2/1  182/3/1  183/4/1 
f  210/1/1  209/2/1  183/3/1  184/4/1 
f  211/1/1  210/2/1  184/3/1  185/4/1 
f  212/1/1  211/2/1  185/3/1  186/4/1 
f  213/1/1  212/2/1  186/3/1  187/4/1 
f  214/1/1  213/2/1  187/3/1  189/4/1 
f  215/1/1  214/2/1  189/3/1  191/4/1 
f  216/17/1  215/18/1  191/19/1  217/20/1 
f  218/21/1  216/22/1  217/23/1  219/24/1 
f  220/13/1  221/14/1  222/15/1  223/16/1 
f  224/17/1  220/18/1  223/19/1  194/20/1 
f  225/9/1  224/10/1  194/11/1  193/12/1 
f  226/1/1  227/2/1  198/3/1  197/4/1 
f  228/1/1  226/2/1  197/3/1  199/4/1 
f  229/1/1  228/2/1  199/3/1  200/4/1 
f  230/1/1  229/2/1  200/3/1  231/4/1 
f  232/1/1  230/2/1  231/3/1  233/4/1 
f  234/1/1  232/2/1  233/3/1  235/4/1 
f  236/1/1  234/2/1  235/3/1  202/4/1 
f  237/1/1  236/2/1  202/3/1  201/4/1 
f  238/1/1  237/2/1  201/3/1  203/4/1 
f  239/1/1  238/2/1  203/3/1  204/4/1 
f  240/1/1  239/2/1  204/3/1  205/4/1 
f  241/1/1  240/2/1  205/3/1  206/4/1 
f  242/1/1  241/2/1  206/3/1  207/4/1 
f  243/1/1  242/2/1  207/3/1  208/4/1 
f  244/1/1  243/2/1  208/3/1  209/4/1 
f  245/1/1  244/2/1  209/3/1  210/4/1 
f  246/1/1  245/2/1  210/3/1  211/4/1 
f  247/1/1  246/2/1  211/3/1  212/4/1 
f  248/1/1  247/2/1  212/3/1  213/4/1 
f  249/1/1  248/2/1  213/3/1  214/4/1 
f  250/9/1  249/10/1  214/11/1  215/12/1 
f  251/1/1  250/2/1  215/3/1  216/4/1 
f  252/1/1  251/2/1  216/3/1  218/4/1 
f  253/17/1  252/18/1  218/19/1  254/20/1 
f  255/17/1  253/18/1  254/19/1  256/20/1 
f  257/17/1  255/18/1  256/19/1  258/20/1 
f  259/17/1  257/18/1  258/19/1  221/20/1 
f  260/1/1  259/2/1  221/3/1  220/4/1 
f  261/1/1  260/2/1  220/3/1  224/4/1 
f  262/25/1  261/26/1  224/27/1  225/28/1 
g mesh_[02]_[00]
f  231/29/1  200/30/1  174/31/1  263/32/1 
f  233/29/1  231/30/1  263/31/1  264/32/1 
f  235/29/1  233/30/1  264/31/1  265/32/1 
f  202/29/1  235/30/1  265/31/1  176/32/1 
g mesh_[06]_[00]
f  129/33/1  130/34/1  131/35/1  132/36/1 
f  133/37/1  129/38/1  132/39/1  134/40/1 
f  135/41/1  133/42/1  134/43/1  136/44/1 
f  153/33/1  154/34/1  155/35/1  156/36/1 
f  157/45/1  153/46/1  156/47/1  138/48/1 
f  166/49/1  164/50/1  165/51/1  167/52/1 
f  168/41/1  166/42/1  167/43/1  169/44/1 
f  187/37/1  186/38/1  168/39/1  188/40/1 
f  189/37/1  187/38/1  188/39/1  190/40/1 
f  191/41/1  189/42/1  190/43/1  192/44/1 
f  220/33/1  221/34/1  222/35/1  223/36/1 
f  224/37/1  220/38/1  223/39/1  194/40/1 
g mesh_[07]_[00]
f  147/53/1  148/54/1  149/55/1  150/56/1 
f  151/53/1  147/54/1  150/55/1  152/56/1 
f  173/1/1  170/2/1  148/3/1  147/4/1 
f  174/1/1  173/2/1  147/3/1  151/4/1 
f  253/53/1  252/54/1  218/55/1  254/56/1 
f  255/53/1  253/54/1  254/55/1  256/56/1 
f  257/53/1  255/54/1  256/55/1  258/56/1 
f  259/53/1  257/54/1  258/55/1  221/56/1 
