# Wavefront OBJ file automatically generated by Tiled2Unity

# Vertices (Count = 264)
v -1160 -40 0
v -1200 -40 0
v -1200 0 0
v -1160 0 0
v -1120 -40 0
v -1120 0 0
v -1080 -40 0
v -1080 0 0
v -1040 -40 0
v -1040 0 0
v -1000 -40 0
v -1000 0 0
v -960 -40 0
v -960 0 0
v -920 -40 0
v -920 0 0
v -880 -40 0
v -880 0 0
v -840 -40 0
v -840 0 0
v -800 -40 0
v -800 0 0
v -760 -40 0
v -760 0 0
v -720 -40 0
v -720 0 0
v -680 -40 0
v -680 0 0
v -640 -40 0
v -640 0 0
v -600 -40 0
v -600 0 0
v -560 -40 0
v -560 0 0
v -520 -40 0
v -520 0 0
v -480 -40 0
v -480 0 0
v -440 -40 0
v -440 0 0
v -400 -40 0
v -400 0 0
v -360 -40 0
v -360 0 0
v -320 -40 0
v -320 0 0
v -280 -40 0
v -280 0 0
v -240 -40 0
v -240 0 0
v -200 -40 0
v -200 0 0
v -160 -40 0
v -160 0 0
v -120 -40 0
v -120 0 0
v -80 -40 0
v -80 0 0
v -40 -40 0
v -40 0 0
v 0 -40 0
v 0 0 0
v -1160 -80 0
v -1200 -80 0
v -1120 -80 0
v -1080 -80 0
v -1040 -80 0
v -1000 -80 0
v -960 -80 0
v -920 -80 0
v -880 -80 0
v -840 -80 0
v -800 -80 0
v -760 -80 0
v -720 -80 0
v -680 -80 0
v -640 -80 0
v -600 -80 0
v -560 -80 0
v -520 -80 0
v -480 -80 0
v -440 -80 0
v -400 -80 0
v -360 -80 0
v -320 -80 0
v -280 -80 0
v -240 -80 0
v -200 -80 0
v -160 -80 0
v -120 -80 0
v -80 -80 0
v -40 -80 0
v 0 -80 0
v -1160 -120 0
v -1200 -120 0
v -1120 -120 0
v -1080 -120 0
v -1040 -120 0
v -1000 -120 0
v -960 -120 0
v -920 -120 0
v -880 -120 0
v -840 -120 0
v -800 -120 0
v -760 -120 0
v -720 -120 0
v -680 -120 0
v -640 -120 0
v -600 -120 0
v -560 -120 0
v -520 -120 0
v -480 -120 0
v -440 -120 0
v -400 -120 0
v -360 -120 0
v -320 -120 0
v -280 -120 0
v -240 -120 0
v -200 -120 0
v -160 -120 0
v -120 -120 0
v -80 -120 0
v -40 -120 0
v 0 -120 0
v -40 -160 0
v -80 -160 0
v 0 -160 0
v 0 -200 0
v -40 -200 0
v -960 -320 0
v -1000 -320 0
v -1000 -280 0
v -960 -280 0
v -920 -320 0
v -920 -280 0
v -880 -320 0
v -880 -280 0
v -840 -320 0
v -840 -280 0
v -520 -320 0
v -560 -320 0
v -560 -280 0
v -520 -280 0
v -480 -320 0
v -480 -280 0
v -440 -320 0
v -440 -280 0
v -400 -320 0
v -400 -280 0
v -960 -360 0
v -1000 -360 0
v -920 -360 0
v -880 -360 0
v -840 -360 0
v -520 -360 0
v -560 -360 0
v -480 -360 0
v -440 -360 0
v -400 -360 0
v -360 -360 0
v -360 -320 0
v -320 -360 0
v -320 -320 0
v -960 -400 0
v -1000 -400 0
v -920 -400 0
v -880 -400 0
v -840 -400 0
v -520 -400 0
v -560 -400 0
v -480 -400 0
v -440 -400 0
v -400 -400 0
v -360 -400 0
v -320 -400 0
v -280 -400 0
v -280 -360 0
v -1160 -440 0
v -1200 -440 0
v -1200 -400 0
v -1160 -400 0
v -1080 -440 0
v -1120 -440 0
v -1120 -400 0
v -1080 -400 0
v -960 -440 0
v -1000 -440 0
v -920 -440 0
v -880 -440 0
v -840 -440 0
v -520 -440 0
v -560 -440 0
v -480 -440 0
v -440 -440 0
v -400 -440 0
v -360 -440 0
v -320 -440 0
v -280 -440 0
v -240 -440 0
v -240 -400 0
v -160 -440 0
v -200 -440 0
v -200 -400 0
v -160 -400 0
v -120 -440 0
v -120 -400 0
v 0 -440 0
v -40 -440 0
v -40 -400 0
v 0 -400 0
v -1160 -480 0
v -1200 -480 0
v -1080 -480 0
v -1120 -480 0
v -960 -480 0
v -1000 -480 0
v -920 -480 0
v -880 -480 0
v -840 -480 0
v -520 -480 0
v -560 -480 0
v -480 -480 0
v -440 -480 0
v -400 -480 0
v -360 -480 0
v -320 -480 0
v -280 -480 0
v -240 -480 0
v -200 -480 0
v -160 -480 0
v -120 -480 0
v 0 -480 0
v -40 -480 0
v -1160 -520 0
v -1200 -520 0
v -1080 -520 0
v -1120 -520 0
v -960 -520 0
v -1000 -520 0
v -920 -520 0
v -880 -520 0
v -840 -520 0
v -520 -520 0
v -560 -520 0
v -480 -520 0
v -440 -520 0
v -400 -520 0
v -360 -520 0
v -320 -520 0
v -280 -520 0
v -240 -520 0
v -200 -520 0
v -160 -520 0
v -120 -520 0
v 0 -520 0
v -40 -520 0
v -1080 -160 0
v -1120 -160 0
v -880 -160 0
v -920 -160 0
v -1080 -200 0
v -1120 -200 0
v -880 -200 0
v -920 -200 0

# Texture Coorindates (Count = 36)
vt 0.08012207 0.840122
vt 0.1598779 0.840122
vt 0.1598779 0.9198779
vt 0.08012207 0.9198779
vt 0.1601221 0.840122
vt 0.2398779 0.840122
vt 0.2398779 0.9198779
vt 0.1601221 0.9198779
vt 0.08012207 0.7601221
vt 0.1598779 0.7601221
vt 0.1598779 0.8398779
vt 0.08012207 0.8398779
vt 0.1601221 0.9201221
vt 0.2398779 0.9201221
vt 0.2398779 0.9998779
vt 0.1601221 0.9998779
vt 0.08012207 0.9201221
vt 0.1598779 0.9201221
vt 0.1598779 0.9998779
vt 0.08012207 0.9998779
vt 0.0001220703 0.9201221
vt 0.07987793 0.9201221
vt 0.07987793 0.9998779
vt 0.0001220703 0.9998779
vt 0.0001220703 0.840122
vt 0.07987793 0.840122
vt 0.07987793 0.9198779
vt 0.0001220703 0.9198779
vt 0.2401221 0.6801221
vt 0.3198779 0.6801221
vt 0.3198779 0.7598779
vt 0.2401221 0.7598779
vt 0.3201221 0.9201221
vt 0.3998779 0.9201221
vt 0.3998779 0.9998779
vt 0.3201221 0.9998779

# Normal
vn 0 0 -1

# Groups (Count = 3)
g mesh_[00]_[00]
f  1/1/1  2/2/1  3/3/1  4/4/1 
f  5/1/1  1/2/1  4/3/1  6/4/1 
f  7/1/1  5/2/1  6/3/1  8/4/1 
f  9/1/1  7/2/1  8/3/1  10/4/1 
f  11/1/1  9/2/1  10/3/1  12/4/1 
f  13/1/1  11/2/1  12/3/1  14/4/1 
f  15/1/1  13/2/1  14/3/1  16/4/1 
f  17/1/1  15/2/1  16/3/1  18/4/1 
f  19/1/1  17/2/1  18/3/1  20/4/1 
f  21/1/1  19/2/1  20/3/1  22/4/1 
f  23/1/1  21/2/1  22/3/1  24/4/1 
f  25/1/1  23/2/1  24/3/1  26/4/1 
f  27/1/1  25/2/1  26/3/1  28/4/1 
f  29/1/1  27/2/1  28/3/1  30/4/1 
f  31/1/1  29/2/1  30/3/1  32/4/1 
f  33/1/1  31/2/1  32/3/1  34/4/1 
f  35/1/1  33/2/1  34/3/1  36/4/1 
f  37/1/1  35/2/1  36/3/1  38/4/1 
f  39/1/1  37/2/1  38/3/1  40/4/1 
f  41/1/1  39/2/1  40/3/1  42/4/1 
f  43/1/1  41/2/1  42/3/1  44/4/1 
f  45/1/1  43/2/1  44/3/1  46/4/1 
f  47/1/1  45/2/1  46/3/1  48/4/1 
f  49/1/1  47/2/1  48/3/1  50/4/1 
f  51/1/1  49/2/1  50/3/1  52/4/1 
f  53/1/1  51/2/1  52/3/1  54/4/1 
f  55/1/1  53/2/1  54/3/1  56/4/1 
f  57/1/1  55/2/1  56/3/1  58/4/1 
f  59/1/1  57/2/1  58/3/1  60/4/1 
f  61/5/1  59/6/1  60/7/1  62/8/1 
f  63/1/1  64/2/1  2/3/1  1/4/1 
f  65/1/1  63/2/1  1/3/1  5/4/1 
f  66/1/1  65/2/1  5/3/1  7/4/1 
f  67/1/1  66/2/1  7/3/1  9/4/1 
f  68/1/1  67/2/1  9/3/1  11/4/1 
f  69/1/1  68/2/1  11/3/1  13/4/1 
f  70/1/1  69/2/1  13/3/1  15/4/1 
f  71/1/1  70/2/1  15/3/1  17/4/1 
f  72/1/1  71/2/1  17/3/1  19/4/1 
f  73/1/1  72/2/1  19/3/1  21/4/1 
f  74/1/1  73/2/1  21/3/1  23/4/1 
f  75/1/1  74/2/1  23/3/1  25/4/1 
f  76/1/1  75/2/1  25/3/1  27/4/1 
f  77/1/1  76/2/1  27/3/1  29/4/1 
f  78/1/1  77/2/1  29/3/1  31/4/1 
f  79/1/1  78/2/1  31/3/1  33/4/1 
f  80/1/1  79/2/1  33/3/1  35/4/1 
f  81/1/1  80/2/1  35/3/1  37/4/1 
f  82/1/1  81/2/1  37/3/1  39/4/1 
f  83/1/1  82/2/1  39/3/1  41/4/1 
f  84/1/1  83/2/1  41/3/1  43/4/1 
f  85/1/1  84/2/1  43/3/1  45/4/1 
f  86/1/1  85/2/1  45/3/1  47/4/1 
f  87/1/1  86/2/1  47/3/1  49/4/1 
f  88/1/1  87/2/1  49/3/1  51/4/1 
f  89/1/1  88/2/1  51/3/1  53/4/1 
f  90/1/1  89/2/1  53/3/1  55/4/1 
f  91/1/1  90/2/1  55/3/1  57/4/1 
f  92/1/1  91/2/1  57/3/1  59/4/1 
f  93/5/1  92/6/1  59/7/1  61/8/1 
f  94/9/1  95/10/1  64/11/1  63/12/1 
f  96/9/1  94/10/1  63/11/1  65/12/1 
f  97/9/1  96/10/1  65/11/1  66/12/1 
f  98/9/1  97/10/1  66/11/1  67/12/1 
f  99/9/1  98/10/1  67/11/1  68/12/1 
f  100/9/1  99/10/1  68/11/1  69/12/1 
f  101/9/1  100/10/1  69/11/1  70/12/1 
f  102/9/1  101/10/1  70/11/1  71/12/1 
f  103/9/1  102/10/1  71/11/1  72/12/1 
f  104/9/1  103/10/1  72/11/1  73/12/1 
f  105/9/1  104/10/1  73/11/1  74/12/1 
f  106/9/1  105/10/1  74/11/1  75/12/1 
f  107/9/1  106/10/1  75/11/1  76/12/1 
f  108/9/1  107/10/1  76/11/1  77/12/1 
f  109/9/1  108/10/1  77/11/1  78/12/1 
f  110/9/1  109/10/1  78/11/1  79/12/1 
f  111/9/1  110/10/1  79/11/1  80/12/1 
f  112/9/1  111/10/1  80/11/1  81/12/1 
f  113/9/1  112/10/1  81/11/1  82/12/1 
f  114/9/1  113/10/1  82/11/1  83/12/1 
f  115/9/1  114/10/1  83/11/1  84/12/1 
f  116/9/1  115/10/1  84/11/1  85/12/1 
f  117/9/1  116/10/1  85/11/1  86/12/1 
f  118/9/1  117/10/1  86/11/1  87/12/1 
f  119/9/1  118/10/1  87/11/1  88/12/1 
f  120/9/1  119/10/1  88/11/1  89/12/1 
f  121/9/1  120/10/1  89/11/1  90/12/1 
f  122/9/1  121/10/1  90/11/1  91/12/1 
f  123/1/1  122/2/1  91/3/1  92/4/1 
f  124/5/1  123/6/1  92/7/1  93/8/1 
f  125/9/1  126/10/1  122/11/1  123/12/1 
f  127/1/1  125/2/1  123/3/1  124/4/1 
f  128/9/1  129/10/1  125/11/1  127/12/1 
f  130/13/1  131/14/1  132/15/1  133/16/1 
f  134/17/1  130/18/1  133/19/1  135/20/1 
f  136/17/1  134/18/1  135/19/1  137/20/1 
f  138/21/1  136/22/1  137/23/1  139/24/1 
f  140/13/1  141/14/1  142/15/1  143/16/1 
f  144/17/1  140/18/1  143/19/1  145/20/1 
f  146/17/1  144/18/1  145/19/1  147/20/1 
f  148/21/1  146/22/1  147/23/1  149/24/1 
f  150/5/1  151/6/1  131/7/1  130/8/1 
f  152/1/1  150/2/1  130/3/1  134/4/1 
f  153/1/1  152/2/1  134/3/1  136/4/1 
f  154/25/1  153/26/1  136/27/1  138/28/1 
f  155/5/1  156/6/1  141/7/1  140/8/1 
f  157/1/1  155/2/1  140/3/1  144/4/1 
f  158/1/1  157/2/1  144/3/1  146/4/1 
f  159/1/1  158/2/1  146/3/1  148/4/1 
f  160/17/1  159/18/1  148/19/1  161/20/1 
f  162/21/1  160/22/1  161/23/1  163/24/1 
f  164/5/1  165/6/1  151/7/1  150/8/1 
f  166/1/1  164/2/1  150/3/1  152/4/1 
f  167/1/1  166/2/1  152/3/1  153/4/1 
f  168/25/1  167/26/1  153/27/1  154/28/1 
f  169/5/1  170/6/1  156/7/1  155/8/1 
f  171/1/1  169/2/1  155/3/1  157/4/1 
f  172/1/1  171/2/1  157/3/1  158/4/1 
f  173/1/1  172/2/1  158/3/1  159/4/1 
f  174/1/1  173/2/1  159/3/1  160/4/1 
f  175/1/1  174/2/1  160/3/1  162/4/1 
f  176/21/1  175/22/1  162/23/1  177/24/1 
f  178/21/1  179/22/1  180/23/1  181/24/1 
f  182/17/1  183/18/1  184/19/1  185/20/1 
f  186/5/1  187/6/1  165/7/1  164/8/1 
f  188/1/1  186/2/1  164/3/1  166/4/1 
f  189/1/1  188/2/1  166/3/1  167/4/1 
f  190/25/1  189/26/1  167/27/1  168/28/1 
f  191/5/1  192/6/1  170/7/1  169/8/1 
f  193/1/1  191/2/1  169/3/1  171/4/1 
f  194/1/1  193/2/1  171/3/1  172/4/1 
f  195/1/1  194/2/1  172/3/1  173/4/1 
f  196/1/1  195/2/1  173/3/1  174/4/1 
f  197/1/1  196/2/1  174/3/1  175/4/1 
f  198/1/1  197/2/1  175/3/1  176/4/1 
f  199/17/1  198/18/1  176/19/1  200/20/1 
f  201/17/1  202/18/1  203/19/1  204/20/1 
f  205/21/1  201/22/1  204/23/1  206/24/1 
f  207/13/1  208/14/1  209/15/1  210/16/1 
f  211/25/1  212/26/1  179/27/1  178/28/1 
f  213/1/1  214/2/1  183/3/1  182/4/1 
f  215/1/1  216/2/1  187/3/1  186/4/1 
f  217/1/1  215/2/1  186/3/1  188/4/1 
f  218/1/1  217/2/1  188/3/1  189/4/1 
f  219/25/1  218/26/1  189/27/1  190/28/1 
f  220/5/1  221/6/1  192/7/1  191/8/1 
f  222/1/1  220/2/1  191/3/1  193/4/1 
f  223/5/1  222/6/1  193/7/1  194/8/1 
f  224/1/1  223/2/1  194/3/1  195/4/1 
f  225/1/1  224/2/1  195/3/1  196/4/1 
f  226/1/1  225/2/1  196/3/1  197/4/1 
f  227/1/1  226/2/1  197/3/1  198/4/1 
f  228/1/1  227/2/1  198/3/1  199/4/1 
f  229/1/1  228/2/1  199/3/1  202/4/1 
f  230/1/1  229/2/1  202/3/1  201/4/1 
f  231/25/1  230/26/1  201/27/1  205/28/1 
f  232/5/1  233/6/1  208/7/1  207/8/1 
f  234/25/1  235/26/1  212/27/1  211/28/1 
f  236/1/1  237/2/1  214/3/1  213/4/1 
f  238/1/1  239/2/1  216/3/1  215/4/1 
f  240/1/1  238/2/1  215/3/1  217/4/1 
f  241/1/1  240/2/1  217/3/1  218/4/1 
f  242/25/1  241/26/1  218/27/1  219/28/1 
f  243/5/1  244/6/1  221/7/1  220/8/1 
f  245/1/1  243/2/1  220/3/1  222/4/1 
f  246/1/1  245/2/1  222/3/1  223/4/1 
f  247/1/1  246/2/1  223/3/1  224/4/1 
f  248/1/1  247/2/1  224/3/1  225/4/1 
f  249/1/1  248/2/1  225/3/1  226/4/1 
f  250/1/1  249/2/1  226/3/1  227/4/1 
f  251/1/1  250/2/1  227/3/1  228/4/1 
f  252/1/1  251/2/1  228/3/1  229/4/1 
f  253/1/1  252/2/1  229/3/1  230/4/1 
f  254/25/1  253/26/1  230/27/1  231/28/1 
f  255/5/1  256/6/1  233/7/1  232/8/1 
g mesh_[01]_[00]
f  96/9/1  94/10/1  63/11/1  65/12/1 
f  97/1/1  96/2/1  65/3/1  66/4/1 
f  98/9/1  97/10/1  66/11/1  67/12/1 
f  101/9/1  100/10/1  69/11/1  70/12/1 
f  102/1/1  101/2/1  70/3/1  71/4/1 
f  103/9/1  102/10/1  71/11/1  72/12/1 
f  257/1/1  258/2/1  96/3/1  97/4/1 
f  259/1/1  260/2/1  101/3/1  102/4/1 
f  261/29/1  262/30/1  258/31/1  257/32/1 
f  263/29/1  264/30/1  260/31/1  259/32/1 
g mesh_[02]_[00]
f  202/33/1  199/34/1  200/35/1  203/36/1 
